# xmcd
#
# Track frame offsets: 
#        150
#        13348
#        25554
#        38057
#        50345
#        67243
#        78680
#        89443
#        101613
#        115005
#        127774
#        138156
#        149756
#        159579
#        172789
#        183630
#        195903
#        209069
#        223732
#        237301
#        249409
#        261542
#        274183
#        292537
#        304426
#        316847
#
# Disc length: 4523 seconds
#
# Revision: 0
# Processed by: cddbd v1.5.2PL0 Copyright (c) Steve Scherf et al.
# Submitted via: ExactAudioCopyFreeDBPlugin 1.0
#
DISCID=7e11a91a
DTITLE=B.B. King - Everyday I Have The Blues: The Best Of B.B. King CD
DTITLE=4, 2013
DYEAR=1900
DGENRE=Blues
TTITLE0=On My Word Of Honour
TTITLE1=You Know I Go For You
TTITLE2=Don`t Look Now, But I`ve Got The Blues
TTITLE3=You`ve Been An Angel
TTITLE4=Sweet 16, Pt. 1
TTITLE5=Sweet 16, Pt. 2
TTITLE6=I've Got Papers On You, Baby
TTITLE7=Confessin'
TTITLE8=Tomorrow Is Another Day
TTITLE9=You're Gonna Miss Me
TTITLE10=Come By Here
TTITLE11=Catfish Blues
TTITLE12=Time To Say Goodbye
TTITLE13=I Love You So
TTITLE14=Treat Me Right
TTITLE15=Shoutin' The Blues
TTITLE16=Someday Baby
TTITLE17=(I've) Got A Right To Love My Baby
TTITLE18=Got 'Em Bad
TTITLE19=Understand
TTITLE20=Low Rider
TTITLE21=Walkin'
TTITLE22=Slidin' And Glidin'
TTITLE23=Easy Listening Blues
TTITLE24=Don't Touch
TTITLE25=B.B. King with Count Basie Orchestra - Everyday I Have The Bl
TTITLE25=ues
EXTD=
EXTT0=
EXTT1=
EXTT2=
EXTT3=
EXTT4=
EXTT5=
EXTT6=
EXTT7=
EXTT8=
EXTT9=
EXTT10=
EXTT11=
EXTT12=
EXTT13=
EXTT14=
EXTT15=
EXTT16=
EXTT17=
EXTT18=
EXTT19=
EXTT20=
EXTT21=
EXTT22=
EXTT23=
EXTT24=
EXTT25=
PLAYORDER=
